<mxfile host="app.diagrams.net" modified="2024-04-22T14:12:31.500Z" agent="Mozilla/5.0 (X11; Linux x86_64) AppleWebKit/537.36 (KHTML, like Gecko) Chrome/124.0.0.0 Safari/537.36" etag="o6GKz7TmSpEL0XAEP2B3" version="24.2.7" type="github">
  <diagram name="Pico Class Diagram" id="929967ad-93f9-6ef4-fab6-5d389245f69c">
    <mxGraphModel dx="1602" dy="893" grid="1" gridSize="10" guides="1" tooltips="1" connect="1" arrows="1" fold="1" page="1" pageScale="1.5" pageWidth="1169" pageHeight="826" background="none" math="0" shadow="0">
      <root>
        <mxCell id="0" style=";html=1;" />
        <mxCell id="1" style=";html=1;" parent="0" />
        <mxCell id="6PNS78TTOGFN8Gt0yDvU-5" value="&lt;p style=&quot;margin:0px;margin-top:6px;text-align:center;&quot;&gt;&lt;b&gt;Pico&lt;/b&gt;&lt;/p&gt;" style="align=left;overflow=fill;html=1;dropTarget=0;whiteSpace=wrap;fillColor=none;" parent="1" vertex="1">
          <mxGeometry x="10" y="150" width="1690" height="900" as="geometry" />
        </mxCell>
        <mxCell id="6PNS78TTOGFN8Gt0yDvU-6" value="" style="shape=component;jettyWidth=8;jettyHeight=4;" parent="6PNS78TTOGFN8Gt0yDvU-5" vertex="1">
          <mxGeometry x="1" width="20" height="20" relative="1" as="geometry">
            <mxPoint x="-24" y="4" as="offset" />
          </mxGeometry>
        </mxCell>
        <mxCell id="VUEz5ttrnp85_iaPiQHL-18" style="edgeStyle=orthogonalEdgeStyle;rounded=0;orthogonalLoop=1;jettySize=auto;html=1;exitX=0.5;exitY=1;exitDx=0;exitDy=0;entryX=0.25;entryY=0;entryDx=0;entryDy=0;" parent="1" source="VUEz5ttrnp85_iaPiQHL-1" target="VUEz5ttrnp85_iaPiQHL-2" edge="1">
          <mxGeometry relative="1" as="geometry">
            <Array as="points">
              <mxPoint x="490" y="570" />
              <mxPoint x="1230" y="570" />
            </Array>
          </mxGeometry>
        </mxCell>
        <mxCell id="VUEz5ttrnp85_iaPiQHL-1" value="&lt;p style=&quot;margin:0px;margin-top:4px;text-align:center;&quot;&gt;&lt;b&gt;AliveTimer&lt;/b&gt;&lt;br&gt;&lt;/p&gt;&lt;hr size=&quot;1&quot; style=&quot;border-style:solid;&quot;&gt;&lt;p style=&quot;margin:0px;margin-left:4px;&quot;&gt;+ ms&lt;/p&gt;&lt;p style=&quot;margin:0px;margin-left:4px;&quot;&gt;+ comm&lt;/p&gt;&lt;p style=&quot;margin:0px;margin-left:4px;&quot;&gt;+ KAtoggle&lt;/p&gt;&lt;hr size=&quot;1&quot; style=&quot;border-style:solid;&quot;&gt;&lt;p style=&quot;margin: 0px 0px 0px 4px;&quot;&gt;+ start()&lt;/p&gt;&lt;p style=&quot;margin: 0px 0px 0px 4px;&quot;&gt;+ stop()&lt;/p&gt;&lt;p style=&quot;margin: 0px 0px 0px 4px;&quot;&gt;+ callback()&lt;/p&gt;" style="verticalAlign=top;align=left;overflow=fill;html=1;whiteSpace=wrap;" parent="1" vertex="1">
          <mxGeometry x="410" y="340" width="160" height="140" as="geometry" />
        </mxCell>
        <mxCell id="6PNS78TTOGFN8Gt0yDvU-7" style="edgeStyle=orthogonalEdgeStyle;rounded=0;orthogonalLoop=1;jettySize=auto;html=1;" parent="1" source="VUEz5ttrnp85_iaPiQHL-2" edge="1">
          <mxGeometry relative="1" as="geometry">
            <mxPoint x="1270" y="1080" as="targetPoint" />
          </mxGeometry>
        </mxCell>
        <mxCell id="VUEz5ttrnp85_iaPiQHL-2" value="&lt;p style=&quot;margin:0px;margin-top:4px;text-align:center;&quot;&gt;&lt;b&gt;Comm&lt;/b&gt;&lt;br&gt;&lt;/p&gt;&lt;hr size=&quot;1&quot; style=&quot;border-style:solid;&quot;&gt;&lt;p style=&quot;margin:0px;margin-left:4px;&quot;&gt;+ car : Car&lt;/p&gt;&lt;hr size=&quot;1&quot; style=&quot;border-style:solid;&quot;&gt;&lt;p style=&quot;margin:0px;margin-left:4px;&quot;&gt;+ readline()&lt;/p&gt;&lt;p style=&quot;margin:0px;margin-left:4px;&quot;&gt;+ process()&lt;/p&gt;&lt;p style=&quot;margin:0px;margin-left:4px;&quot;&gt;- stop(args)&lt;/p&gt;&lt;p style=&quot;margin:0px;margin-left:4px;&quot;&gt;- toggleSensors(args)&lt;/p&gt;&lt;p style=&quot;margin:0px;margin-left:4px;&quot;&gt;- drivef(args)&lt;/p&gt;&lt;p style=&quot;margin:0px;margin-left:4px;&quot;&gt;- driveb(args)&lt;/p&gt;&lt;p style=&quot;margin:0px;margin-left:4px;&quot;&gt;- toggleKA(args)&lt;/p&gt;&lt;p style=&quot;margin:0px;margin-left:4px;&quot;&gt;- keepalive(args)&lt;/p&gt;&lt;p style=&quot;margin:0px;margin-left:4px;&quot;&gt;- check(args)&lt;/p&gt;&lt;p style=&quot;margin:0px;margin-left:4px;&quot;&gt;- drive(args)&lt;/p&gt;&lt;p style=&quot;margin:0px;margin-left:4px;&quot;&gt;- steer(args)&lt;/p&gt;&lt;p style=&quot;margin:0px;margin-left:4px;&quot;&gt;- check_serco(args)&lt;/p&gt;&lt;p style=&quot;margin:0px;margin-left:4px;&quot;&gt;- check_motor(args)&lt;/p&gt;&lt;p style=&quot;margin:0px;margin-left:4px;&quot;&gt;&lt;br&gt;&lt;/p&gt;" style="verticalAlign=top;align=left;overflow=fill;html=1;whiteSpace=wrap;" parent="1" vertex="1">
          <mxGeometry x="1190" y="600" width="160" height="260" as="geometry" />
        </mxCell>
        <mxCell id="VUEz5ttrnp85_iaPiQHL-3" value="&lt;p style=&quot;margin:0px;margin-top:4px;text-align:center;&quot;&gt;&lt;b&gt;Distance&lt;/b&gt;&lt;br&gt;&lt;/p&gt;&lt;hr size=&quot;1&quot; style=&quot;border-style:solid;&quot;&gt;&lt;p style=&quot;margin:0px;margin-left:4px;&quot;&gt;+ i2c_front : I2C&lt;/p&gt;&lt;p style=&quot;margin:0px;margin-left:4px;&quot;&gt;+ i2c_back : I2C&lt;/p&gt;&lt;p style=&quot;margin:0px;margin-left:4px;&quot;&gt;+ tof_front : VL53L0X&lt;/p&gt;&lt;p style=&quot;margin:0px;margin-left:4px;&quot;&gt;+ tof_back : VL53L0X&lt;/p&gt;&lt;hr size=&quot;1&quot; style=&quot;border-style:solid;&quot;&gt;&lt;p style=&quot;margin:0px;margin-left:4px;&quot;&gt;+ measure() : float&lt;/p&gt;" style="verticalAlign=top;align=left;overflow=fill;html=1;whiteSpace=wrap;" parent="1" vertex="1">
          <mxGeometry x="310" y="685" width="160" height="150" as="geometry" />
        </mxCell>
        <mxCell id="VUEz5ttrnp85_iaPiQHL-16" style="edgeStyle=orthogonalEdgeStyle;rounded=0;orthogonalLoop=1;jettySize=auto;html=1;exitX=0;exitY=0.5;exitDx=0;exitDy=0;" parent="1" source="VUEz5ttrnp85_iaPiQHL-4" target="VUEz5ttrnp85_iaPiQHL-3" edge="1">
          <mxGeometry relative="1" as="geometry" />
        </mxCell>
        <mxCell id="VUEz5ttrnp85_iaPiQHL-4" value="&lt;p style=&quot;margin:0px;margin-top:4px;text-align:center;&quot;&gt;&lt;b&gt;DistanceTimer&lt;/b&gt;&lt;br&gt;&lt;/p&gt;&lt;hr size=&quot;1&quot; style=&quot;border-style:solid;&quot;&gt;&lt;p style=&quot;margin:0px;margin-left:4px;&quot;&gt;+ ms&lt;/p&gt;&lt;p style=&quot;margin:0px;margin-left:4px;&quot;&gt;+ comm&lt;/p&gt;&lt;p style=&quot;margin:0px;margin-left:4px;&quot;&gt;+ mindist&lt;/p&gt;&lt;hr size=&quot;1&quot; style=&quot;border-style:solid;&quot;&gt;&lt;p style=&quot;margin: 0px 0px 0px 4px;&quot;&gt;+ start()&lt;/p&gt;&lt;p style=&quot;margin: 0px 0px 0px 4px;&quot;&gt;+ stop()&lt;/p&gt;&lt;p style=&quot;margin: 0px 0px 0px 4px;&quot;&gt;+ callback()&lt;/p&gt;" style="verticalAlign=top;align=left;overflow=fill;html=1;whiteSpace=wrap;" parent="1" vertex="1">
          <mxGeometry x="670" y="670" width="160" height="150" as="geometry" />
        </mxCell>
        <mxCell id="VUEz5ttrnp85_iaPiQHL-5" value="&lt;p style=&quot;margin:0px;margin-top:4px;text-align:center;&quot;&gt;&lt;b&gt;Car&lt;/b&gt;&lt;br&gt;&lt;/p&gt;&lt;hr size=&quot;1&quot; style=&quot;border-style:solid;&quot;&gt;&lt;p style=&quot;margin:0px;margin-left:4px;&quot;&gt;+ field: Type&lt;/p&gt;&lt;hr size=&quot;1&quot; style=&quot;border-style:solid;&quot;&gt;&lt;p style=&quot;margin:0px;margin-left:4px;&quot;&gt;+ motor_drive(motor, in_speed)&lt;/p&gt;&lt;p style=&quot;margin:0px;margin-left:4px;&quot;&gt;+ servo_steer(in_amount)&lt;/p&gt;&lt;p style=&quot;margin:0px;margin-left:4px;&quot;&gt;+ perform_full_check()&lt;/p&gt;&lt;p style=&quot;margin:0px;margin-left:4px;&quot;&gt;+ servo_check()&lt;/p&gt;&lt;p style=&quot;margin:0px;margin-left:4px;&quot;&gt;+ motor_check()&lt;/p&gt;&lt;p style=&quot;margin:0px;margin-left:4px;&quot;&gt;&lt;br&gt;&lt;/p&gt;" style="verticalAlign=top;align=left;overflow=fill;html=1;whiteSpace=wrap;" parent="1" vertex="1">
          <mxGeometry x="930" y="340" width="300" height="140" as="geometry" />
        </mxCell>
        <mxCell id="VUEz5ttrnp85_iaPiQHL-6" value="&lt;h1 style=&quot;margin-top: 0px;&quot;&gt;Comm&lt;/h1&gt;&lt;p&gt;Reading in commands send over UART and parses them. Maps commands to functions which are called on the Car&lt;/p&gt;" style="text;html=1;whiteSpace=wrap;overflow=hidden;rounded=0;" parent="1" vertex="1">
          <mxGeometry x="1370" y="610" width="180" height="120" as="geometry" />
        </mxCell>
        <mxCell id="VUEz5ttrnp85_iaPiQHL-7" value="&lt;h1 style=&quot;margin-top: 0px;&quot;&gt;Car&lt;/h1&gt;&lt;p&gt;Offering steering commands for the car. Translates those commands into GPIO outputs&lt;/p&gt;" style="text;html=1;whiteSpace=wrap;overflow=hidden;rounded=0;" parent="1" vertex="1">
          <mxGeometry x="1250" y="350" width="180" height="120" as="geometry" />
        </mxCell>
        <mxCell id="VUEz5ttrnp85_iaPiQHL-8" value="&lt;h1 style=&quot;margin-top: 0px;&quot;&gt;DistanceTimer&lt;/h1&gt;&lt;p&gt;initializes a HW Timer and provides a callback for it. It reads the distance sensors and accesses the Comm to stop if an obstacle is detected.&lt;/p&gt;" style="text;html=1;whiteSpace=wrap;overflow=hidden;rounded=0;" parent="1" vertex="1">
          <mxGeometry x="840" y="700" width="180" height="120" as="geometry" />
        </mxCell>
        <mxCell id="VUEz5ttrnp85_iaPiQHL-9" value="&lt;h1 style=&quot;margin-top: 0px;&quot;&gt;Distance&lt;/h1&gt;&lt;p&gt;Sets up the two i2c interfaces and initializes the two sensors.&lt;br&gt;Can perform a measurement by accessing the sensors&lt;/p&gt;" style="text;html=1;whiteSpace=wrap;overflow=hidden;rounded=0;" parent="1" vertex="1">
          <mxGeometry x="120" y="695" width="180" height="120" as="geometry" />
        </mxCell>
        <mxCell id="VUEz5ttrnp85_iaPiQHL-10" value="&lt;h1 style=&quot;margin-top: 0px;&quot;&gt;AliveTimer&lt;/h1&gt;&lt;p&gt;initializes a HW Timer and provides a callback for it. The callback writes a keep alive messsage over uart&lt;/p&gt;" style="text;html=1;whiteSpace=wrap;overflow=hidden;rounded=0;" parent="1" vertex="1">
          <mxGeometry x="590" y="340" width="180" height="120" as="geometry" />
        </mxCell>
        <mxCell id="VUEz5ttrnp85_iaPiQHL-12" value="VL53L0X" style="swimlane;fontStyle=1;align=center;verticalAlign=top;childLayout=stackLayout;horizontal=1;startSize=26;horizontalStack=0;resizeParent=1;resizeParentMax=0;resizeLast=0;collapsible=1;marginBottom=0;whiteSpace=wrap;html=1;" parent="1" vertex="1">
          <mxGeometry x="60" y="450" width="160" height="86" as="geometry" />
        </mxCell>
        <mxCell id="VUEz5ttrnp85_iaPiQHL-13" value="+ field: type" style="text;strokeColor=none;fillColor=none;align=left;verticalAlign=top;spacingLeft=4;spacingRight=4;overflow=hidden;rotatable=0;points=[[0,0.5],[1,0.5]];portConstraint=eastwest;whiteSpace=wrap;html=1;" parent="VUEz5ttrnp85_iaPiQHL-12" vertex="1">
          <mxGeometry y="26" width="160" height="26" as="geometry" />
        </mxCell>
        <mxCell id="VUEz5ttrnp85_iaPiQHL-14" value="" style="line;strokeWidth=1;fillColor=none;align=left;verticalAlign=middle;spacingTop=-1;spacingLeft=3;spacingRight=3;rotatable=0;labelPosition=right;points=[];portConstraint=eastwest;strokeColor=inherit;" parent="VUEz5ttrnp85_iaPiQHL-12" vertex="1">
          <mxGeometry y="52" width="160" height="8" as="geometry" />
        </mxCell>
        <mxCell id="VUEz5ttrnp85_iaPiQHL-15" value="+ method(type): type" style="text;strokeColor=none;fillColor=none;align=left;verticalAlign=top;spacingLeft=4;spacingRight=4;overflow=hidden;rotatable=0;points=[[0,0.5],[1,0.5]];portConstraint=eastwest;whiteSpace=wrap;html=1;" parent="VUEz5ttrnp85_iaPiQHL-12" vertex="1">
          <mxGeometry y="60" width="160" height="26" as="geometry" />
        </mxCell>
        <mxCell id="VUEz5ttrnp85_iaPiQHL-17" style="edgeStyle=orthogonalEdgeStyle;rounded=0;orthogonalLoop=1;jettySize=auto;html=1;exitX=0.5;exitY=1;exitDx=0;exitDy=0;entryX=0;entryY=0.962;entryDx=0;entryDy=0;entryPerimeter=0;" parent="1" source="VUEz5ttrnp85_iaPiQHL-4" target="VUEz5ttrnp85_iaPiQHL-2" edge="1">
          <mxGeometry relative="1" as="geometry" />
        </mxCell>
        <mxCell id="VUEz5ttrnp85_iaPiQHL-19" style="edgeStyle=orthogonalEdgeStyle;rounded=0;orthogonalLoop=1;jettySize=auto;html=1;exitX=0.75;exitY=0;exitDx=0;exitDy=0;entryX=0.85;entryY=1.025;entryDx=0;entryDy=0;entryPerimeter=0;" parent="1" source="VUEz5ttrnp85_iaPiQHL-2" target="VUEz5ttrnp85_iaPiQHL-5" edge="1">
          <mxGeometry relative="1" as="geometry" />
        </mxCell>
        <mxCell id="VUEz5ttrnp85_iaPiQHL-20" style="edgeStyle=orthogonalEdgeStyle;rounded=0;orthogonalLoop=1;jettySize=auto;html=1;exitX=0.25;exitY=0;exitDx=0;exitDy=0;entryX=0.811;entryY=1.016;entryDx=0;entryDy=0;entryPerimeter=0;" parent="1" source="VUEz5ttrnp85_iaPiQHL-3" target="VUEz5ttrnp85_iaPiQHL-15" edge="1">
          <mxGeometry relative="1" as="geometry" />
        </mxCell>
        <mxCell id="VUEz5ttrnp85_iaPiQHL-21" value="When is keep alive sent from the pi?" style="text;html=1;align=center;verticalAlign=middle;whiteSpace=wrap;rounded=0;" parent="1" vertex="1">
          <mxGeometry x="325" y="270" width="130" height="30" as="geometry" />
        </mxCell>
        <mxCell id="6PNS78TTOGFN8Gt0yDvU-8" value="CommandInterface" style="swimlane;fontStyle=1;align=center;verticalAlign=top;childLayout=stackLayout;horizontal=1;startSize=26;horizontalStack=0;resizeParent=1;resizeParentMax=0;resizeLast=0;collapsible=1;marginBottom=0;whiteSpace=wrap;html=1;" parent="1" vertex="1">
          <mxGeometry x="1015" y="1090" width="160" height="86" as="geometry" />
        </mxCell>
        <mxCell id="6PNS78TTOGFN8Gt0yDvU-9" value="+ field: type" style="text;strokeColor=none;fillColor=none;align=left;verticalAlign=top;spacingLeft=4;spacingRight=4;overflow=hidden;rotatable=0;points=[[0,0.5],[1,0.5]];portConstraint=eastwest;whiteSpace=wrap;html=1;" parent="6PNS78TTOGFN8Gt0yDvU-8" vertex="1">
          <mxGeometry y="26" width="160" height="26" as="geometry" />
        </mxCell>
        <mxCell id="6PNS78TTOGFN8Gt0yDvU-10" value="" style="line;strokeWidth=1;fillColor=none;align=left;verticalAlign=middle;spacingTop=-1;spacingLeft=3;spacingRight=3;rotatable=0;labelPosition=right;points=[];portConstraint=eastwest;strokeColor=inherit;" parent="6PNS78TTOGFN8Gt0yDvU-8" vertex="1">
          <mxGeometry y="52" width="160" height="8" as="geometry" />
        </mxCell>
        <mxCell id="6PNS78TTOGFN8Gt0yDvU-11" value="+ method(type): type" style="text;strokeColor=none;fillColor=none;align=left;verticalAlign=top;spacingLeft=4;spacingRight=4;overflow=hidden;rotatable=0;points=[[0,0.5],[1,0.5]];portConstraint=eastwest;whiteSpace=wrap;html=1;" parent="6PNS78TTOGFN8Gt0yDvU-8" vertex="1">
          <mxGeometry y="60" width="160" height="26" as="geometry" />
        </mxCell>
        <mxCell id="6PNS78TTOGFN8Gt0yDvU-12" value="XboxInput" style="swimlane;fontStyle=1;align=center;verticalAlign=top;childLayout=stackLayout;horizontal=1;startSize=26;horizontalStack=0;resizeParent=1;resizeParentMax=0;resizeLast=0;collapsible=1;marginBottom=0;whiteSpace=wrap;html=1;" parent="1" vertex="1">
          <mxGeometry x="210" y="1620" width="160" height="180" as="geometry" />
        </mxCell>
        <mxCell id="6PNS78TTOGFN8Gt0yDvU-13" value="- _joystick : pygame.joystick" style="text;strokeColor=none;fillColor=none;align=left;verticalAlign=top;spacingLeft=4;spacingRight=4;overflow=hidden;rotatable=0;points=[[0,0.5],[1,0.5]];portConstraint=eastwest;whiteSpace=wrap;html=1;" parent="6PNS78TTOGFN8Gt0yDvU-12" vertex="1">
          <mxGeometry y="26" width="160" height="26" as="geometry" />
        </mxCell>
        <mxCell id="6PNS78TTOGFN8Gt0yDvU-14" value="" style="line;strokeWidth=1;fillColor=none;align=left;verticalAlign=middle;spacingTop=-1;spacingLeft=3;spacingRight=3;rotatable=0;labelPosition=right;points=[];portConstraint=eastwest;strokeColor=inherit;" parent="6PNS78TTOGFN8Gt0yDvU-12" vertex="1">
          <mxGeometry y="52" width="160" height="8" as="geometry" />
        </mxCell>
        <mxCell id="6PNS78TTOGFN8Gt0yDvU-15" value="- _deinit()&lt;div&gt;-&amp;nbsp;_rumble_controller()&lt;/div&gt;&lt;div&gt;- _connect_controller()&lt;/div&gt;" style="text;strokeColor=none;fillColor=none;align=left;verticalAlign=top;spacingLeft=4;spacingRight=4;overflow=hidden;rotatable=0;points=[[0,0.5],[1,0.5]];portConstraint=eastwest;whiteSpace=wrap;html=1;" parent="6PNS78TTOGFN8Gt0yDvU-12" vertex="1">
          <mxGeometry y="60" width="160" height="120" as="geometry" />
        </mxCell>
        <mxCell id="6PNS78TTOGFN8Gt0yDvU-17" value="KeyboardInput" style="swimlane;fontStyle=1;align=center;verticalAlign=top;childLayout=stackLayout;horizontal=1;startSize=26;horizontalStack=0;resizeParent=1;resizeParentMax=0;resizeLast=0;collapsible=1;marginBottom=0;whiteSpace=wrap;html=1;" parent="1" vertex="1">
          <mxGeometry x="390" y="1620" width="160" height="86" as="geometry" />
        </mxCell>
        <mxCell id="6PNS78TTOGFN8Gt0yDvU-18" value="+ field: type" style="text;strokeColor=none;fillColor=none;align=left;verticalAlign=top;spacingLeft=4;spacingRight=4;overflow=hidden;rotatable=0;points=[[0,0.5],[1,0.5]];portConstraint=eastwest;whiteSpace=wrap;html=1;" parent="6PNS78TTOGFN8Gt0yDvU-17" vertex="1">
          <mxGeometry y="26" width="160" height="26" as="geometry" />
        </mxCell>
        <mxCell id="6PNS78TTOGFN8Gt0yDvU-19" value="" style="line;strokeWidth=1;fillColor=none;align=left;verticalAlign=middle;spacingTop=-1;spacingLeft=3;spacingRight=3;rotatable=0;labelPosition=right;points=[];portConstraint=eastwest;strokeColor=inherit;" parent="6PNS78TTOGFN8Gt0yDvU-17" vertex="1">
          <mxGeometry y="52" width="160" height="8" as="geometry" />
        </mxCell>
        <mxCell id="6PNS78TTOGFN8Gt0yDvU-20" value="+ method(type): type" style="text;strokeColor=none;fillColor=none;align=left;verticalAlign=top;spacingLeft=4;spacingRight=4;overflow=hidden;rotatable=0;points=[[0,0.5],[1,0.5]];portConstraint=eastwest;whiteSpace=wrap;html=1;" parent="6PNS78TTOGFN8Gt0yDvU-17" vertex="1">
          <mxGeometry y="60" width="160" height="26" as="geometry" />
        </mxCell>
        <mxCell id="6PNS78TTOGFN8Gt0yDvU-21" value="&lt;p style=&quot;margin:0px;margin-top:4px;text-align:center;&quot;&gt;&lt;i&gt;&amp;lt;&amp;lt;Interface&amp;gt;&amp;gt;I&lt;b&gt;InputSource&lt;/b&gt;&lt;/i&gt;&lt;br&gt;&lt;/p&gt;&lt;p style=&quot;margin:0px;margin-left:4px;&quot;&gt;+ field1: Type&lt;br&gt;+ field2: Type&lt;/p&gt;&lt;hr size=&quot;1&quot; style=&quot;border-style:solid;&quot;&gt;&lt;p style=&quot;margin:0px;margin-left:4px;&quot;&gt;+ read_inputs() :&amp;nbsp;&lt;span style=&quot;background-color: initial;&quot;&gt;CarControls&lt;/span&gt;&lt;/p&gt;" style="verticalAlign=top;align=left;overflow=fill;html=1;whiteSpace=wrap;" parent="1" vertex="1">
          <mxGeometry x="310" y="1370" width="190" height="140" as="geometry" />
        </mxCell>
        <mxCell id="6PNS78TTOGFN8Gt0yDvU-22" value="&lt;p style=&quot;margin:0px;margin-top:4px;text-align:center;&quot;&gt;&lt;i&gt;&amp;lt;&amp;lt;Interface&amp;gt;&amp;gt;I&lt;b&gt;ControlAlgorithm&lt;/b&gt;&lt;/i&gt;&lt;br&gt;&lt;/p&gt;&lt;p style=&quot;margin:0px;margin-left:4px;&quot;&gt;+ field1: Type&lt;br&gt;+ field2: Type&lt;/p&gt;&lt;hr size=&quot;1&quot; style=&quot;border-style:solid;&quot;&gt;&lt;p style=&quot;margin:0px;margin-left:4px;&quot;&gt;+ process_frame() : CarControls&lt;/p&gt;" style="verticalAlign=top;align=left;overflow=fill;html=1;whiteSpace=wrap;" parent="1" vertex="1">
          <mxGeometry x="670" y="1370" width="190" height="140" as="geometry" />
        </mxCell>
        <mxCell id="6PNS78TTOGFN8Gt0yDvU-23" value="" style="endArrow=block;dashed=1;endFill=0;endSize=12;html=1;rounded=0;entryX=0.5;entryY=1;entryDx=0;entryDy=0;exitX=0.5;exitY=0;exitDx=0;exitDy=0;" parent="1" source="6PNS78TTOGFN8Gt0yDvU-12" target="6PNS78TTOGFN8Gt0yDvU-21" edge="1">
          <mxGeometry width="160" relative="1" as="geometry">
            <mxPoint x="360" y="1570" as="sourcePoint" />
            <mxPoint x="540" y="1550" as="targetPoint" />
          </mxGeometry>
        </mxCell>
        <mxCell id="IaVNiZhSbnmAruqYZMPc-6" value="implements" style="edgeLabel;html=1;align=center;verticalAlign=middle;resizable=0;points=[];" vertex="1" connectable="0" parent="6PNS78TTOGFN8Gt0yDvU-23">
          <mxGeometry x="-0.145" y="3" relative="1" as="geometry">
            <mxPoint as="offset" />
          </mxGeometry>
        </mxCell>
        <mxCell id="6PNS78TTOGFN8Gt0yDvU-24" value="" style="endArrow=block;dashed=1;endFill=0;endSize=12;html=1;rounded=0;exitX=0.5;exitY=0;exitDx=0;exitDy=0;entryX=0.5;entryY=1;entryDx=0;entryDy=0;" parent="1" source="6PNS78TTOGFN8Gt0yDvU-17" target="6PNS78TTOGFN8Gt0yDvU-21" edge="1">
          <mxGeometry width="160" relative="1" as="geometry">
            <mxPoint x="415" y="1520" as="sourcePoint" />
            <mxPoint x="540" y="1560" as="targetPoint" />
          </mxGeometry>
        </mxCell>
        <mxCell id="IaVNiZhSbnmAruqYZMPc-7" value="implements" style="edgeLabel;html=1;align=center;verticalAlign=middle;resizable=0;points=[];" vertex="1" connectable="0" parent="6PNS78TTOGFN8Gt0yDvU-24">
          <mxGeometry x="-0.2896" y="-2" relative="1" as="geometry">
            <mxPoint as="offset" />
          </mxGeometry>
        </mxCell>
        <mxCell id="6PNS78TTOGFN8Gt0yDvU-25" value="LaneDetectionHough" style="swimlane;fontStyle=1;align=center;verticalAlign=top;childLayout=stackLayout;horizontal=1;startSize=26;horizontalStack=0;resizeParent=1;resizeParentMax=0;resizeLast=0;collapsible=1;marginBottom=0;whiteSpace=wrap;html=1;" parent="1" vertex="1">
          <mxGeometry x="685" y="1620" width="160" height="86" as="geometry" />
        </mxCell>
        <mxCell id="6PNS78TTOGFN8Gt0yDvU-26" value="+ field: type" style="text;strokeColor=none;fillColor=none;align=left;verticalAlign=top;spacingLeft=4;spacingRight=4;overflow=hidden;rotatable=0;points=[[0,0.5],[1,0.5]];portConstraint=eastwest;whiteSpace=wrap;html=1;" parent="6PNS78TTOGFN8Gt0yDvU-25" vertex="1">
          <mxGeometry y="26" width="160" height="26" as="geometry" />
        </mxCell>
        <mxCell id="6PNS78TTOGFN8Gt0yDvU-27" value="" style="line;strokeWidth=1;fillColor=none;align=left;verticalAlign=middle;spacingTop=-1;spacingLeft=3;spacingRight=3;rotatable=0;labelPosition=right;points=[];portConstraint=eastwest;strokeColor=inherit;" parent="6PNS78TTOGFN8Gt0yDvU-25" vertex="1">
          <mxGeometry y="52" width="160" height="8" as="geometry" />
        </mxCell>
        <mxCell id="6PNS78TTOGFN8Gt0yDvU-28" value="+ method(type): type" style="text;strokeColor=none;fillColor=none;align=left;verticalAlign=top;spacingLeft=4;spacingRight=4;overflow=hidden;rotatable=0;points=[[0,0.5],[1,0.5]];portConstraint=eastwest;whiteSpace=wrap;html=1;" parent="6PNS78TTOGFN8Gt0yDvU-25" vertex="1">
          <mxGeometry y="60" width="160" height="26" as="geometry" />
        </mxCell>
        <mxCell id="6PNS78TTOGFN8Gt0yDvU-30" value="" style="endArrow=block;dashed=1;endFill=0;endSize=12;html=1;rounded=0;exitX=0.5;exitY=1;exitDx=0;exitDy=0;entryX=0.5;entryY=0;entryDx=0;entryDy=0;" parent="1" source="6PNS78TTOGFN8Gt0yDvU-22" target="6PNS78TTOGFN8Gt0yDvU-25" edge="1">
          <mxGeometry width="160" relative="1" as="geometry">
            <mxPoint x="790" y="1536" as="sourcePoint" />
            <mxPoint x="855" y="1646" as="targetPoint" />
          </mxGeometry>
        </mxCell>
        <mxCell id="6PNS78TTOGFN8Gt0yDvU-31" value="&lt;p style=&quot;margin:0px;margin-top:4px;text-align:center;&quot;&gt;&lt;b&gt;ControlManager&lt;/b&gt;&lt;/p&gt;&lt;hr size=&quot;1&quot; style=&quot;border-style:solid;&quot;&gt;&lt;p style=&quot;margin:0px;margin-left:4px;&quot;&gt;- _com_interface : CommandInterface&lt;/p&gt;&lt;p style=&quot;margin:0px;margin-left:4px;&quot;&gt;- _inpput_spurces : list&amp;lt;IInputSource&amp;gt;&lt;/p&gt;&lt;p style=&quot;margin:0px;margin-left:4px;&quot;&gt;- _control_algorithms = list&amp;lt;IControlAlgorithm&amp;gt;&amp;nbsp;&lt;/p&gt;&lt;hr size=&quot;1&quot; style=&quot;border-style:solid;&quot;&gt;&lt;p style=&quot;margin:0px;margin-left:4px;&quot;&gt;+ register_input_source(input_source : IInputSource)&lt;/p&gt;&lt;p style=&quot;margin:0px;margin-left:4px;&quot;&gt;+ register_control_algorithm(control_algorithm : IControlAlgorithm)&lt;/p&gt;&lt;p style=&quot;margin:0px;margin-left:4px;&quot;&gt;+ run()&lt;/p&gt;&lt;p style=&quot;margin:0px;margin-left:4px;&quot;&gt;+ stop()&lt;/p&gt;" style="verticalAlign=top;align=left;overflow=fill;html=1;whiteSpace=wrap;" parent="1" vertex="1">
          <mxGeometry x="380" y="1150" width="410" height="170" as="geometry" />
        </mxCell>
        <mxCell id="6PNS78TTOGFN8Gt0yDvU-32" value="Use" style="endArrow=open;endSize=12;dashed=1;html=1;rounded=0;exitX=1;exitY=0.5;exitDx=0;exitDy=0;entryX=0;entryY=0.5;entryDx=0;entryDy=0;" parent="1" source="6PNS78TTOGFN8Gt0yDvU-31" target="6PNS78TTOGFN8Gt0yDvU-9" edge="1">
          <mxGeometry width="160" relative="1" as="geometry">
            <mxPoint x="820" y="1270" as="sourcePoint" />
            <mxPoint x="980" y="1270" as="targetPoint" />
          </mxGeometry>
        </mxCell>
        <mxCell id="6PNS78TTOGFN8Gt0yDvU-33" value="&lt;p style=&quot;margin:0px;margin-top:4px;text-align:center;&quot;&gt;&lt;b&gt;CarControls&lt;/b&gt;&lt;/p&gt;&lt;hr size=&quot;1&quot; style=&quot;border-style:solid;&quot;&gt;&lt;p style=&quot;margin:0px;margin-left:4px;&quot;&gt;+ steer&lt;/p&gt;&lt;p style=&quot;margin:0px;margin-left:4px;&quot;&gt;+ throttle&lt;/p&gt;&lt;p style=&quot;margin:0px;margin-left:4px;&quot;&gt;+ stop&lt;/p&gt;&lt;hr size=&quot;1&quot; style=&quot;border-style:solid;&quot;&gt;&lt;p style=&quot;margin:0px;margin-left:4px;&quot;&gt;+ method(): Type&lt;/p&gt;" style="verticalAlign=top;align=left;overflow=fill;html=1;whiteSpace=wrap;" parent="1" vertex="1">
          <mxGeometry x="990" y="1450" width="160" height="155" as="geometry" />
        </mxCell>
        <mxCell id="6PNS78TTOGFN8Gt0yDvU-34" value="&lt;h1 style=&quot;margin-top: 0px;&quot;&gt;scaling der lenkwinkel / throttle&lt;/h1&gt;" style="text;html=1;whiteSpace=wrap;overflow=hidden;rounded=0;" parent="1" vertex="1">
          <mxGeometry x="1420" y="1170" width="180" height="120" as="geometry" />
        </mxCell>
        <mxCell id="IaVNiZhSbnmAruqYZMPc-1" value="DummyCommandInterface" style="swimlane;fontStyle=1;align=center;verticalAlign=top;childLayout=stackLayout;horizontal=1;startSize=26;horizontalStack=0;resizeParent=1;resizeParentMax=0;resizeLast=0;collapsible=1;marginBottom=0;whiteSpace=wrap;html=1;" vertex="1" parent="1">
          <mxGeometry x="1000" y="1290" width="190" height="86" as="geometry" />
        </mxCell>
        <mxCell id="IaVNiZhSbnmAruqYZMPc-2" value="+ field: type" style="text;strokeColor=none;fillColor=none;align=left;verticalAlign=top;spacingLeft=4;spacingRight=4;overflow=hidden;rotatable=0;points=[[0,0.5],[1,0.5]];portConstraint=eastwest;whiteSpace=wrap;html=1;" vertex="1" parent="IaVNiZhSbnmAruqYZMPc-1">
          <mxGeometry y="26" width="190" height="26" as="geometry" />
        </mxCell>
        <mxCell id="IaVNiZhSbnmAruqYZMPc-3" value="" style="line;strokeWidth=1;fillColor=none;align=left;verticalAlign=middle;spacingTop=-1;spacingLeft=3;spacingRight=3;rotatable=0;labelPosition=right;points=[];portConstraint=eastwest;strokeColor=inherit;" vertex="1" parent="IaVNiZhSbnmAruqYZMPc-1">
          <mxGeometry y="52" width="190" height="8" as="geometry" />
        </mxCell>
        <mxCell id="IaVNiZhSbnmAruqYZMPc-4" value="+ method(type): type" style="text;strokeColor=none;fillColor=none;align=left;verticalAlign=top;spacingLeft=4;spacingRight=4;overflow=hidden;rotatable=0;points=[[0,0.5],[1,0.5]];portConstraint=eastwest;whiteSpace=wrap;html=1;" vertex="1" parent="IaVNiZhSbnmAruqYZMPc-1">
          <mxGeometry y="60" width="190" height="26" as="geometry" />
        </mxCell>
        <mxCell id="IaVNiZhSbnmAruqYZMPc-9" value="" style="endArrow=block;dashed=1;endFill=0;endSize=12;html=1;rounded=0;exitX=0.5;exitY=0;exitDx=0;exitDy=0;entryX=0.475;entryY=0.971;entryDx=0;entryDy=0;entryPerimeter=0;" edge="1" parent="1" source="IaVNiZhSbnmAruqYZMPc-1" target="6PNS78TTOGFN8Gt0yDvU-11">
          <mxGeometry width="160" relative="1" as="geometry">
            <mxPoint x="970" y="1690" as="sourcePoint" />
            <mxPoint x="1130" y="1690" as="targetPoint" />
          </mxGeometry>
        </mxCell>
        <mxCell id="IaVNiZhSbnmAruqYZMPc-11" value="extends" style="edgeLabel;html=1;align=center;verticalAlign=middle;resizable=0;points=[];" vertex="1" connectable="0" parent="IaVNiZhSbnmAruqYZMPc-9">
          <mxGeometry x="-0.0259" y="-1" relative="1" as="geometry">
            <mxPoint y="1" as="offset" />
          </mxGeometry>
        </mxCell>
      </root>
    </mxGraphModel>
  </diagram>
</mxfile>
